<svg xmlns="http://www.w3.org/2000/svg" viewBox="-15 -10 110 180" fill="none" stroke="#b5614a" stroke-width="2.2" stroke-linecap="round" stroke-linejoin="round">
<g transform="rotate(18, 40, 80)">
  <!-- Stem -->
  <path d="M 40,156 C 40,120 41,60 38,6"/>

  <!-- Pair 1 (bottom, largest) -->
  <path d="M 40,138 C 28,138 10,130 8,124 C 6,118 24,118 40,138"/>
  <path d="M 40,130 C 52,130 68,122 70,116 C 72,110 54,110 40,130"/>

  <!-- Pair 2 -->
  <path d="M 40,114 C 28,114 12,106 10,100 C 8,94 26,94 40,114"/>
  <path d="M 40,106 C 52,106 66,98 68,92 C 70,86 52,86 40,106"/>

  <!-- Pair 3 -->
  <path d="M 40,90 C 28,90 14,82 12,76 C 10,70 26,70 40,90"/>
  <path d="M 40,82 C 52,82 64,74 66,68 C 68,62 52,62 40,82"/>

  <!-- Pair 4 -->
  <path d="M 40,66 C 28,66 16,58 14,52 C 12,46 28,46 40,66"/>
  <path d="M 40,58 C 50,58 62,50 64,44 C 66,38 50,38 40,58"/>

  <!-- Pair 5 -->
  <path d="M 40,42 C 30,42 20,34 18,28 C 16,22 30,22 40,42"/>
  <path d="M 40,34 C 48,34 58,26 60,20 C 62,14 48,14 40,34"/>

  <!-- Top small pair -->
  <path d="M 39,20 C 32,20 24,14 23,10 C 22,6 30,6 39,20"/>
  <path d="M 39,14 C 44,14 52,8 53,5 C 54,2 46,3 39,14"/>
</g>
</svg>
